<?xml version="1.0" standalone="no"?>
<!DOCTYPE svg PUBLIC "-//W3C//DTD SVG 20010904//EN"
 "http://www.w3.org/TR/2001/REC-SVG-20010904/DTD/svg10.dtd">
<svg version="1.0" xmlns="http://www.w3.org/2000/svg"
 width="1430.943094pt" height="480.611793pt" viewBox="0 0 1430.943094 480.611793"
 preserveAspectRatio="xMidYMid meet">
<metadata>
Created by potrace 1.16, written by Peter Selinger 2001-2019
</metadata>
<g transform="translate(-240.191681,480.813139) scale(0.100000,-0.100000)"
fill="#000000" stroke="none">
<path d="M4655 4799 c-477 -36 -911 -195 -1280 -469 -726 -539 -1091 -1444
-939 -2330 98 -574 413 -1106 869 -1470 287 -228 662 -405 1008 -475 549 -110
1068 -46 1545 190 785 389 1296 1157 1341 2015 23 439 -52 813 -239 1195 -375
770 -1107 1271 -1965 1345 -134 11 -181 11 -340 -1z m415 -874 c299 -58 552
-195 763 -415 407 -421 541 -1043 351 -1631 -145 -449 -486 -800 -917 -944
-179 -59 -250 -70 -467 -70 -218 0 -288 11 -470 71 -675 225 -1094 957 -980
1715 54 353 215 670 462 905 221 210 495 340 808 384 94 13 351 4 450 -15z"/>
<path d="M14285 4803 c-598 -48 -1120 -283 -1528 -686 -369 -364 -595 -799
-689 -1327 -30 -170 -33 -574 -5 -745 132 -801 609 -1450 1322 -1800 357 -176
719 -253 1125 -242 365 11 661 82 975 237 545 268 972 738 1186 1305 l38 100
-477 3 c-310 1 -478 -1 -480 -8 -2 -5 -34 -55 -70 -109 -237 -353 -527 -556
-920 -644 -133 -29 -472 -32 -602 -4 -359 77 -657 266 -876 556 -72 95 -189
323 -228 442 -184 569 -52 1202 339 1617 365 387 907 539 1440 402 366 -94
672 -331 890 -689 l36 -61 475 0 475 0 -7 23 c-3 12 -24 67 -46 122 -308 777
-1000 1342 -1813 1479 -174 29 -408 42 -560 29z"/>
<path d="M7730 2380 l0 -2310 430 0 430 0 0 575 0 574 738 3 c725 3 739 4 847
26 717 151 1261 703 1400 1422 23 115 31 361 16 485 -26 223 -73 380 -172 580
-235 477 -657 804 -1195 927 l-99 22 -1197 3 -1198 4 0 -2311z m2341 1433
c335 -94 553 -372 588 -752 17 -181 -16 -357 -94 -516 -102 -207 -270 -358
-480 -432 l-80 -28 -707 -3 -708 -3 0 881 0 881 703 -3 c681 -4 704 -4 778
-25z"/>
</g>
</svg>
